# xmcd
#
# Track frame offsets:
#	150
#	12505
#	25725
#	37500
#	48015
#	60535
#	71475
#	84065
#	93285
#	101625
#	112170
#	123050
#	133340
#	143715
#	154415
#	167260
#
# Disc length: 2381
#
# Revision: 2
# Processed by: cddbd v1.5.1PL0 Copyright (c) Steve Scherf et al.
# Submitted via: EasyCDDAExtractor 6.0.0.1
# Normalized: r1:DSETVAR1
#
DISCID=bf094b10
DTITLE=Various Artist - Hot Country CD5-6
DYEAR=2004
DGENRE=Country
TTITLE0=Johnny paycheck - take this job and shove it
TTITLE1=Ray price - city lights
TTITLE2=ned miller - do what you do do well
TTITLE3=charlie walker - pick me up on your way down
TTITLE4=bobby helms - fraulein
TTITLE5=faron young - i miss you already
TTITLE6=hank thompson - oklahoma hills
TTITLE7=del reeves - good times charlies
TTITLE8=don gibson - blue blue day
TTITLE9=dave dudley - six days on the road
TTITLE10=warren Smith - i don't belive i'll fall in love today
TTITLE11=Jack reno - hitchin' a ride
TTITLE12=waren mack - the bridge washed out
TTITLE13=johnny russell - act naturally
TTITLE14=Dickey Lee - never ending song of love
TTITLE15=WYN Stewart - it's such a pretty world today
EXTD=
EXTT0=
EXTT1=
EXTT2=
EXTT3=
EXTT4=
EXTT5=
EXTT6=
EXTT7=
EXTT8=
EXTT9=
EXTT10=
EXTT11=
EXTT12=
EXTT13=
EXTT14=
EXTT15=
PLAYORDER=
